<?xml version="1.0" encoding="UTF-8" standalone="no"?>
<!-- Created with Inkscape (http://www.inkscape.org/) -->

<svg
   xmlns:dc="http://purl.org/dc/elements/1.1/"
   xmlns:cc="http://creativecommons.org/ns#"
   xmlns:rdf="http://www.w3.org/1999/02/22-rdf-syntax-ns#"
   xmlns:svg="http://www.w3.org/2000/svg"
   xmlns="http://www.w3.org/2000/svg"
   xmlns:sodipodi="http://sodipodi.sourceforge.net/DTD/sodipodi-0.dtd"
   xmlns:inkscape="http://www.inkscape.org/namespaces/inkscape"
   width="139.35442mm"
   height="123.38221mm"
   viewBox="0 0 139.35442 123.38221"
   version="1.1"
   id="svg1457"
   inkscape:version="0.92.4 (5da689c313, 2019-01-14)"
   sodipodi:docname="r.svg">
  <defs
     id="defs1451" />
  <sodipodi:namedview
     id="base"
     pagecolor="#ffffff"
     bordercolor="#666666"
     borderopacity="1.0"
     inkscape:pageopacity="0.0"
     inkscape:pageshadow="2"
     inkscape:zoom="1.979899"
     inkscape:cx="-64.370333"
     inkscape:cy="91.857764"
     inkscape:document-units="mm"
     inkscape:current-layer="layer1"
     showgrid="false"
     inkscape:window-width="1920"
     inkscape:window-height="1017"
     inkscape:window-x="1912"
     inkscape:window-y="-8"
     inkscape:window-maximized="1" />
  <metadata
     id="metadata1454">
    <rdf:RDF>
      <cc:Work
         rdf:about="">
        <dc:format>image/svg+xml</dc:format>
        <dc:type
           rdf:resource="http://purl.org/dc/dcmitype/StillImage" />
        <dc:title />
      </cc:Work>
    </rdf:RDF>
  </metadata>
  <g
     inkscape:label="Layer 1"
     inkscape:groupmode="layer"
     id="layer1"
     transform="translate(-35.400173,-73.535083)">
    <path
       style="fill:#ffffff;fill-opacity:1;stroke-width:0.30253759"
       d="M 85.110415,163.64696 54.857789,133.39318 h 21.177626 21.17765 l 30.252665,30.25378 30.25256,30.25376 H 136.54071 115.36307 Z M 128.9784,147.30992 115.06415,133.39318 h 8.6418 c 9.31001,0 10.23911,-0.11967 13.41592,-1.72842 1.82477,-0.92406 4.386,-3.30385 5.61206,-5.21449 2.03832,-3.1765 2.79189,-7.18583 2.02811,-10.79092 -1.15072,-5.43145 -4.78422,-9.58554 -9.9005,-11.31905 -1.94412,-0.65872 -2.02365,-0.66062 -25.6994,-0.61736 l -23.749185,0.0434 -14.97562,-14.992588 -14.975606,-14.99258 40.388766,0.0932 c 40.290625,0.0931 40.395765,0.0948 43.262915,0.75454 9.66359,2.2235 17.16636,6.46003 23.6636,13.36199 7.45811,7.922764 11.52788,17.728728 11.93722,28.762688 0.30059,8.10397 -1.06258,14.50304 -4.60859,21.63144 -5.08188,10.2162 -13.18642,17.56481 -24.19392,21.93745 -1.25183,0.49731 -2.44317,0.90417 -2.64755,0.90417 -0.2046,0 -6.63293,-6.26257 -14.28577,-13.91674 z"
       id="path982"
       inkscape:connector-curvature="0"
       inkscape:export-xdpi="311.77301"
       inkscape:export-ydpi="311.77301" />
    <g
       aria-label="EVENANTS"
       transform="rotate(90)"
       style="font-style:normal;font-weight:normal;font-size:21.38218307px;line-height:1.25;font-family:sans-serif;letter-spacing:0px;word-spacing:0px;fill:#ffffff;fill-opacity:1;stroke:none;stroke-width:0.80183184"
       id="text1423">
      <path
         d="M 84.824876,-35.720905 H 73.535083 V -52.80527 h 11.289793 v 2.73692 h -8.039701 v 4.083997 h 7.93279 v 2.672773 h -7.93279 v 4.70408 h 8.039701 z"
         style="font-style:normal;font-variant:normal;font-weight:normal;font-stretch:normal;font-family:'Keep Calm';-inkscape-font-specification:'Keep Calm';fill:#ffffff;fill-opacity:1;stroke-width:0.80183184"
         id="path815" />
      <path
         d="m 102.1538,-52.826652 -6.478803,17.105747 h -3.03627 l -6.628476,-17.105747 h 3.677735 l 4.447494,12.016787 4.383348,-12.016787 z"
         style="font-style:normal;font-variant:normal;font-weight:normal;font-stretch:normal;font-family:'Keep Calm';-inkscape-font-specification:'Keep Calm';fill:#ffffff;fill-opacity:1;stroke-width:0.80183184"
         id="path817" />
      <path
         d="M 115.26943,-35.720905 H 103.97964 V -52.80527 h 11.28979 v 2.73692 h -8.0397 v 4.083997 h 7.93279 v 2.672773 h -7.93279 v 4.70408 h 8.0397 z"
         style="font-style:normal;font-variant:normal;font-weight:normal;font-stretch:normal;font-family:'Keep Calm';-inkscape-font-specification:'Keep Calm';fill:#ffffff;fill-opacity:1;stroke-width:0.80183184"
         id="path819" />
      <path
         d="m 132.0638,-35.720905 h -3.25009 l -7.71897,-11.995405 v 11.995405 h -3.25009 v -17.105747 h 3.7205 l 7.24856,11.1615 v -11.1615 h 3.25009 z"
         style="font-style:normal;font-variant:normal;font-weight:normal;font-stretch:normal;font-family:'Keep Calm';-inkscape-font-specification:'Keep Calm';fill:#ffffff;fill-opacity:1;stroke-width:0.80183184"
         id="path821" />
      <path
         d="m 152.51486,-35.720905 h -3.63498 l -1.58228,-3.42115 h -8.29628 l -1.60367,3.42115 h -3.63497 l 8.08247,-17.105747 h 2.58724 z m -6.52157,-6.179451 -2.84383,-6.158069 -2.8866,6.158069 z"
         style="font-style:normal;font-variant:normal;font-weight:normal;font-stretch:normal;font-family:'Keep Calm';-inkscape-font-specification:'Keep Calm';fill:#ffffff;fill-opacity:1;stroke-width:0.80183184"
         id="path823" />
      <path
         d="m 168.43856,-35.720905 h -3.25009 L 157.4695,-47.71631 v 11.995405 h -3.25009 v -17.105747 h 3.7205 l 7.24856,11.1615 v -11.1615 h 3.25009 z"
         style="font-style:normal;font-variant:normal;font-weight:normal;font-stretch:normal;font-family:'Keep Calm';-inkscape-font-specification:'Keep Calm';fill:#ffffff;fill-opacity:1;stroke-width:0.80183184"
         id="path825" />
      <path
         d="m 183.37302,-49.854528 h -4.72547 v 14.133623 h -3.357 v -14.133623 h -4.72546 v -2.950742 h 12.80793 z"
         style="font-style:normal;font-variant:normal;font-weight:normal;font-stretch:normal;font-family:'Keep Calm';-inkscape-font-specification:'Keep Calm';fill:#ffffff;fill-opacity:1;stroke-width:0.80183184"
         id="path827" />
      <path
         d="m 196.9173,-40.211164 q 0,0.962198 -0.42765,1.838868 -0.40626,0.855287 -1.15464,1.518135 -0.74837,0.662848 -1.77472,1.069109 -1.02634,0.384879 -2.26651,0.384879 -1.11187,0 -2.00992,-0.128293 -0.87667,-0.128293 -1.66781,-0.406261 -0.76976,-0.277969 -1.49676,-0.705612 -0.70561,-0.449026 -1.47537,-1.069109 l 2.35204,-2.373423 q 1.02635,0.855288 2.00993,1.218785 0.98358,0.342115 2.13822,0.342115 0.4704,0 0.87667,-0.128293 0.42764,-0.149676 0.72699,-0.38488 0.32073,-0.235204 0.49179,-0.555936 0.19244,-0.320733 0.19244,-0.705612 0,-0.406262 -0.14968,-0.726995 -0.14967,-0.320732 -0.53455,-0.620083 -0.38488,-0.299351 -1.06911,-0.598701 -0.68423,-0.320733 -1.75334,-0.705612 -0.94081,-0.342115 -1.81748,-0.769759 -0.85529,-0.449026 -1.51814,-1.069109 -0.64146,-0.620083 -1.04773,-1.453988 -0.38488,-0.833906 -0.38488,-1.967161 0,-1.090492 0.42765,-2.009925 0.44902,-0.919434 1.1974,-1.5609 0.76976,-0.662847 1.77472,-1.026345 1.02635,-0.363497 2.20237,-0.363497 1.96716,0 3.31424,0.513173 1.34707,0.513172 2.3948,1.496753 l -2.30928,2.330657 q -0.64146,-0.620083 -1.4326,-0.940816 -0.79114,-0.342115 -1.86025,-0.342115 -0.49179,0 -0.91944,0.149676 -0.40626,0.149675 -0.70561,0.406261 -0.29935,0.235204 -0.49179,0.577319 -0.17106,0.320733 -0.17106,0.68423 0,0.406262 0.17106,0.748376 0.17106,0.320733 0.57732,0.641466 0.40626,0.299351 1.06911,0.620083 0.68423,0.299351 1.68919,0.662848 1.28293,0.449026 2.20237,0.98358 0.91943,0.534555 1.49675,1.17602 0.57732,0.641466 0.85529,1.453989 0.27797,0.791141 0.27797,1.796103 z"
         style="font-style:normal;font-variant:normal;font-weight:normal;font-stretch:normal;font-family:'Keep Calm';-inkscape-font-specification:'Keep Calm';fill:#ffffff;fill-opacity:1;stroke-width:0.80183184"
         id="path829" />
    </g>
  </g>
</svg>
