<?xml version="1.0" encoding="UTF-8" standalone="no"?>
<!-- Created with Inkscape (http://www.inkscape.org/) -->

<svg
   xmlns:dc="http://purl.org/dc/elements/1.1/"
   xmlns:cc="http://creativecommons.org/ns#"
   xmlns:rdf="http://www.w3.org/1999/02/22-rdf-syntax-ns#"
   xmlns:svg="http://www.w3.org/2000/svg"
   xmlns="http://www.w3.org/2000/svg"
   xmlns:sodipodi="http://sodipodi.sourceforge.net/DTD/sodipodi-0.dtd"
   xmlns:inkscape="http://www.inkscape.org/namespaces/inkscape"
   width="139.35442mm"
   height="123.38221mm"
   viewBox="0 0 139.35442 123.38221"
   version="1.1"
   id="svg1457"
   inkscape:version="0.92.4 (5da689c313, 2019-01-14)"
   sodipodi:docname="r.svg">
  <defs
     id="defs1451" />
  <sodipodi:namedview
     id="base"
     pagecolor="#ffffff"
     bordercolor="#666666"
     borderopacity="1.0"
     inkscape:pageopacity="0.0"
     inkscape:pageshadow="2"
     inkscape:zoom="0.35"
     inkscape:cx="-198.08164"
     inkscape:cy="181.73466"
     inkscape:document-units="mm"
     inkscape:current-layer="layer1"
     showgrid="false"
     inkscape:window-width="1920"
     inkscape:window-height="1017"
     inkscape:window-x="1912"
     inkscape:window-y="-8"
     inkscape:window-maximized="1" />
  <metadata
     id="metadata1454">
    <rdf:RDF>
      <cc:Work
         rdf:about="">
        <dc:format>image/svg+xml</dc:format>
        <dc:type
           rdf:resource="http://purl.org/dc/dcmitype/StillImage" />
        <dc:title></dc:title>
      </cc:Work>
    </rdf:RDF>
  </metadata>
  <g
     inkscape:label="Layer 1"
     inkscape:groupmode="layer"
     id="layer1"
     transform="translate(-35.400173,-73.535083)">
    <path
       style="fill:#ffffff;fill-opacity:1;stroke-width:0.30253759"
       d="M 85.110415,163.64696 54.857789,133.39318 h 21.177626 21.17765 l 30.252665,30.25378 30.25256,30.25376 H 136.54071 115.36307 Z M 128.9784,147.30992 115.06415,133.39318 h 8.6418 c 9.31001,0 10.23911,-0.11967 13.41592,-1.72842 1.82477,-0.92406 4.386,-3.30385 5.61206,-5.21449 2.03832,-3.1765 2.79189,-7.18583 2.02811,-10.79092 -1.15072,-5.43145 -4.78422,-9.58554 -9.9005,-11.31905 -1.94412,-0.65872 -2.02365,-0.66062 -25.6994,-0.61736 l -23.749185,0.0434 -14.97562,-14.992588 -14.975606,-14.99258 40.388766,0.0932 c 40.290625,0.0931 40.395765,0.0948 43.262915,0.75454 9.66359,2.2235 17.16636,6.46003 23.6636,13.36199 7.45811,7.922764 11.52788,17.728728 11.93722,28.762688 0.30059,8.10397 -1.06258,14.50304 -4.60859,21.63144 -5.08188,10.2162 -13.18642,17.56481 -24.19392,21.93745 -1.25183,0.49731 -2.44317,0.90417 -2.64755,0.90417 -0.2046,0 -6.63293,-6.26257 -14.28577,-13.91674 z"
       id="path982"
       inkscape:connector-curvature="0"
       inkscape:export-xdpi="311.77301"
       inkscape:export-ydpi="311.77301" />
    <text
       xml:space="preserve"
       style="font-style:normal;font-weight:normal;font-size:21.38218307px;line-height:1.25;font-family:sans-serif;letter-spacing:0px;word-spacing:0px;fill:#ffffff;fill-opacity:1;stroke:none;stroke-width:0.80183184;"
       x="71.824509"
       y="-35.720905"
       id="text1423"
       transform="rotate(90)"><tspan
         sodipodi:role="line"
         id="tspan1421"
         x="71.824509"
         y="-35.720905"
         style="font-style:normal;font-variant:normal;font-weight:normal;font-stretch:normal;font-family:'Keep Calm';-inkscape-font-specification:'Keep Calm';fill:#ffffff;fill-opacity:1;stroke-width:0.80183184;">EVENANTS</tspan></text>
  </g>
</svg>
